<?xml version="1.0" encoding="iso-8859-1"?>
<!-- Uploaded to: SVG Repo, www.svgrepo.com, Generator: SVG Repo Mixer Tools -->
<!DOCTYPE svg PUBLIC "-//W3C//DTD SVG 1.1//EN" "http://www.w3.org/Graphics/SVG/1.1/DTD/svg11.dtd">
<svg fill="#000000" height="800px" width="800px" version="1.1" id="Capa_1" xmlns="http://www.w3.org/2000/svg" xmlns:xlink="http://www.w3.org/1999/xlink" 
	 viewBox="0 0 297 297" xml:space="preserve">
<g>
	<path d="M77.728,54.998v25.107c0,2.632,2.133,4.765,4.764,4.765h100.051c2.631,0,4.764-2.133,4.764-4.765V54.998
		c0-2.632-2.133-4.765-4.764-4.765H82.492C79.861,50.233,77.728,52.366,77.728,54.998z"/>
	<path d="M179.144,107.602c0-2.999-0.308-5.925-0.854-8.767H86.744c-0.546,2.841-0.852,5.767-0.852,8.767
		c0,25.732,20.916,46.668,46.626,46.668S179.144,133.334,179.144,107.602z M146.603,104.107c1.306-1.298,3.103-2.046,4.938-2.046
		c1.845,0,3.641,0.748,4.938,2.046c1.306,1.297,2.045,3.102,2.045,4.937c0,1.836-0.738,3.632-2.045,4.938
		c-1.298,1.297-3.093,2.045-4.938,2.045c-1.835,0-3.632-0.748-4.938-2.045c-1.297-1.306-2.045-3.102-2.045-4.938
		C144.558,107.199,145.306,105.404,146.603,104.107z M118.421,113.983c-1.297,1.297-3.103,2.045-4.938,2.045
		s-3.641-0.748-4.938-2.045c-1.297-1.297-2.045-3.102-2.045-4.938c0-1.845,0.748-3.641,2.045-4.937
		c1.298-1.298,3.103-2.046,4.938-2.046s3.642,0.748,4.938,2.046c1.297,1.297,2.045,3.102,2.045,4.937
		C120.466,110.881,119.718,112.676,118.421,113.983z M127.579,129.126c-1.297-1.306-2.045-3.102-2.045-4.937
		c0-1.835,0.748-3.642,2.045-4.938c1.298-1.297,3.103-2.045,4.938-2.045s3.642,0.748,4.938,2.045
		c1.297,1.297,2.045,3.092,2.045,4.938c0,1.835-0.748,3.641-2.045,4.937c-1.307,1.298-3.103,2.046-4.938,2.046
		S128.886,130.423,127.579,129.126z"/>
	<path d="M50.796,252.568C68.178,279.328,98.315,297,132.518,297c53.708,0,97.403-43.726,97.403-97.472
		c0-11.496-2.01-22.528-5.68-32.776c-17.207,34.073-52.618,56.607-91.723,56.607c-3.952,0-7.861-0.236-11.718-0.682v8.941
		c0,11.551-9.398,20.949-20.949,20.949H50.796z M137.455,248.506c-1.297,1.297-3.103,2.045-4.938,2.045
		c-1.845,0-3.641-0.748-4.938-2.045c-1.297-1.307-2.045-3.103-2.045-4.938c0-1.835,0.748-3.642,2.045-4.938
		c1.298-1.297,3.103-2.045,4.938-2.045s3.642,0.748,4.938,2.045c1.297,1.297,2.045,3.103,2.045,4.938
		C139.5,245.404,138.752,247.209,137.455,248.506z"/>
	<path d="M99.851,238.602c3.857,0,6.983-3.126,6.983-6.983v-69.117c-17.689-8.32-30.722-24.949-34.058-44.834l-25.649,25.653
		c-1.309,1.309-2.045,3.085-2.045,4.937v83.36c0,3.857,3.126,6.983,6.983,6.983H99.851z"/>
	<path d="M238.446,85.634c7.428,0,13.471-6.05,13.471-13.485c0-7.434-6.043-13.483-13.471-13.483
		c-7.423,0-13.463,6.049-13.463,13.483C224.983,79.584,231.023,85.634,238.446,85.634z"/>
	<path d="M217.06,60.102c0.024,0.038,0.045,0.076,0.066,0.116c2.628-4.686,6.75-8.423,11.72-10.556
		c-3.797-12.049-16.042-33.814-48.72-44.712c-33.229-11.081-58.386-1.483-73.637,8.526c-12.984,8.52-21.038,18.669-23.997,22.791
		c0,0,0.001,0,0.001,0h100.051C182.543,36.267,203.121,37.704,217.06,60.102z"/>
	<path d="M192.654,114.908c-3.619,29.999-29.198,53.328-60.137,53.328c-4.009,0-7.924-0.401-11.718-1.148v41.518
		c3.847,0.514,7.757,0.788,11.718,0.788c39.402,0,74.485-26.468,85.315-64.364c0.697-2.438,0.018-5.063-1.776-6.856L192.654,114.908
		z"/>
</g>
</svg>